<svg width="558" height="389" viewBox="0 0 558 389" fill="none" xmlns="http://www.w3.org/2000/svg">
<g style="mix-blend-mode:saturation">
<rect x="74" y="237" width="399" height="18" rx="9" fill="#8E8E8E"/>
</g>
<g style="mix-blend-mode:saturation">
<rect x="181" y="21" width="18" height="332" rx="9" fill="#8E8E8E"/>
</g>
<g style="mix-blend-mode:saturation">
<rect x="350" y="21" width="18" height="332" rx="9" fill="#8E8E8E"/>
</g>
<g style="mix-blend-mode:saturation">
<rect x="74" y="118" width="399" height="18" rx="9" fill="#8E8E8E"/>
</g>
<path d="M48.6 204H36C32 204 29.1833 203.317 27.55 201.95C25.95 200.55 25.15 198.1 25.15 194.6V168.4H48.6V174.6H32.1V182.95H43.65L43.15 189.15H32.1V194.1C32.1 195.5 32.4167 196.467 33.05 197C33.6833 197.533 34.8333 197.8 36.5 197.8H48.6V204ZM74.5234 196.1V196.85C74.3234 199.35 73.2568 201.233 71.3234 202.5C69.4234 203.767 67.0401 204.4 64.1734 204.4C59.9401 204.4 56.9734 203.633 55.2734 202.1C53.7068 200.7 52.9234 198.633 52.9234 195.9V195.3H58.8234C58.8234 196.833 59.2234 197.883 60.0234 198.45C60.8234 199.017 62.2068 199.3 64.1734 199.3C66.8401 199.3 68.1734 198.333 68.1734 196.4C68.1734 194.8 67.7068 193.733 66.7734 193.2C66.3401 192.933 65.7901 192.733 65.1234 192.6L60.0734 191.75C55.6734 191.05 53.4734 188.3 53.4734 183.5C53.4734 180.833 54.4401 178.767 56.3734 177.3C58.3401 175.8 60.8234 175.05 63.8234 175.05C70.6568 175.05 74.0734 178 74.0734 183.9V184.55H68.4234C68.3568 182.983 67.9401 181.917 67.1734 181.35C66.4068 180.783 65.3234 180.5 63.9234 180.5C62.5568 180.5 61.5234 180.783 60.8234 181.35C60.1234 181.883 59.7734 182.483 59.7734 183.15C59.7734 185.05 60.5401 186.133 62.0734 186.4L68.1234 187.5C72.3901 188.3 74.5234 191.167 74.5234 196.1ZM102.772 188.95C102.772 196.383 100.856 201.133 97.0223 203.2C95.4556 204.033 93.5389 204.45 91.2723 204.45L86.4723 201.35V212.5H79.9723V175.65H92.7723C96.6389 175.65 99.2723 176.75 100.672 178.95C102.072 181.117 102.772 184.45 102.772 188.95ZM96.2723 189.95C96.2723 184.317 94.4723 181.5 90.8723 181.5H86.4723V194.75L90.8723 197.6C92.8056 197.6 94.1889 197 95.0223 195.8C95.8556 194.567 96.2723 192.617 96.2723 189.95ZM129.351 191.25H112.701C112.701 193.85 113.101 195.75 113.901 196.95C114.734 198.15 116.384 198.75 118.851 198.75C120.451 198.75 121.634 198.25 122.401 197.25C123.167 196.217 123.551 195.233 123.551 194.3H129.401C129.401 197.867 128.434 200.483 126.501 202.15C124.601 203.817 122.067 204.65 118.901 204.65C115.767 204.65 113.334 204.2 111.601 203.3C108.034 201.467 106.251 196.6 106.251 188.7C106.251 184 107.267 180.567 109.301 178.4C111.334 176.2 114.434 175.1 118.601 175.1C125.834 175.1 129.451 179.117 129.451 187.15C129.451 188.017 129.417 189.383 129.351 191.25ZM112.851 186.8H123.551C123.551 184.6 123.134 183 122.301 182C121.467 181 120.184 180.5 118.451 180.5C116.751 180.5 115.384 181.017 114.351 182.05C113.351 183.05 112.851 184.633 112.851 186.8ZM150.493 175.55L148.693 181.95C148.193 181.75 147.627 181.65 146.993 181.65C145.327 181.65 143.277 182.367 140.843 183.8V204H134.343V175.45H139.193L140.693 177.95L147.593 175.1C147.927 175.067 148.377 175.05 148.943 175.05C149.51 175.05 150.027 175.217 150.493 175.55ZM174.476 204H170.126L168.126 200.55L161.176 204.3C157.309 204.3 154.709 202.9 153.376 200.1C152.709 198.733 152.242 197.267 151.976 195.7C151.742 194.1 151.626 192.45 151.626 190.75C151.626 189.017 151.642 187.75 151.676 186.95C151.709 186.117 151.792 185.167 151.926 184.1C152.059 183 152.242 182.083 152.476 181.35C152.742 180.617 153.109 179.867 153.576 179.1C154.042 178.3 154.609 177.667 155.276 177.2C156.776 176.167 158.726 175.65 161.126 175.65H167.976L174.476 175.25V204ZM167.976 194.9V181.5H163.026C161.192 181.5 159.909 182.2 159.176 183.6C158.476 185 158.126 187.1 158.126 189.9C158.126 192.667 158.459 194.617 159.126 195.75C159.826 196.883 161.126 197.45 163.026 197.45L167.976 194.9ZM203.685 204H197.185V185.75C197.185 184.117 196.851 183 196.185 182.4C195.518 181.8 194.585 181.5 193.385 181.5L187.535 183.95V204H181.035V175.45H185.885L187.385 178.85L195.385 175.15C197.618 175.15 199.551 175.983 201.185 177.65C202.851 179.283 203.685 181.683 203.685 184.85V204ZM230.947 204H226.597L224.597 200.55L217.647 204.3C213.78 204.3 211.18 202.9 209.847 200.1C209.18 198.733 208.714 197.267 208.447 195.7C208.214 194.1 208.097 192.45 208.097 190.75C208.097 189.017 208.114 187.75 208.147 186.95C208.18 186.117 208.264 185.167 208.397 184.1C208.53 183 208.714 182.083 208.947 181.35C209.214 180.617 209.58 179.867 210.047 179.1C210.514 178.3 211.08 177.667 211.747 177.2C213.247 176.167 215.197 175.65 217.597 175.65H224.447V166.4H230.947V204ZM224.447 194.9V181.5H219.497C217.664 181.5 216.38 182.2 215.647 183.6C214.947 185 214.597 187.1 214.597 189.9C214.597 192.667 214.93 194.617 215.597 195.75C216.297 196.883 217.597 197.45 219.497 197.45L224.447 194.9ZM253.674 191.1V188.5C253.674 186.033 253.308 184.15 252.574 182.85C251.874 181.55 250.391 180.9 248.124 180.9C244.458 180.9 242.624 183.367 242.624 188.3V190.9C242.624 196.2 244.458 198.85 248.124 198.85C250.491 198.85 252.041 197.967 252.774 196.2C253.374 194.8 253.674 193.1 253.674 191.1ZM260.174 189.6C260.174 195.767 259.008 199.9 256.674 202C254.708 203.8 251.858 204.7 248.124 204.7C243.358 204.7 240.141 203.3 238.474 200.5C236.908 197.933 236.124 194.3 236.124 189.6C236.124 185.2 236.908 181.75 238.474 179.25C240.208 176.45 243.358 175.05 247.924 175.05C252.524 175.05 255.708 176.283 257.474 178.75C259.274 181.183 260.174 184.8 260.174 189.6ZM283.494 176.5V205.05C283.494 207.083 282.844 208.833 281.544 210.3C280.277 211.767 278.394 212.5 275.894 212.5H272.194V207H274.694C276.227 207 276.994 206.217 276.994 204.65V176.5H283.494ZM280.294 164.55C281.86 164.55 282.877 164.8 283.344 165.3C283.81 165.767 284.044 166.783 284.044 168.35C284.044 169.883 283.794 170.9 283.294 171.4C282.827 171.867 281.81 172.1 280.244 172.1C278.71 172.1 277.694 171.85 277.194 171.35C276.727 170.85 276.494 169.833 276.494 168.3C276.494 166.767 276.727 165.767 277.194 165.3C277.694 164.8 278.727 164.55 280.294 164.55ZM306.213 191.1V188.5C306.213 186.033 305.847 184.15 305.113 182.85C304.413 181.55 302.93 180.9 300.663 180.9C296.997 180.9 295.163 183.367 295.163 188.3V190.9C295.163 196.2 296.997 198.85 300.663 198.85C303.03 198.85 304.58 197.967 305.313 196.2C305.913 194.8 306.213 193.1 306.213 191.1ZM312.713 189.6C312.713 195.767 311.547 199.9 309.213 202C307.247 203.8 304.397 204.7 300.663 204.7C295.897 204.7 292.68 203.3 291.013 200.5C289.447 197.933 288.663 194.3 288.663 189.6C288.663 185.2 289.447 181.75 291.013 179.25C292.747 176.45 295.897 175.05 300.463 175.05C305.063 175.05 308.247 176.283 310.013 178.75C311.813 181.183 312.713 184.8 312.713 189.6ZM331.912 175.65L338.412 175.25V202.7C338.412 205.867 337.512 208.283 335.712 209.95C333.945 211.65 331.312 212.5 327.812 212.5C325.112 212.5 322.745 211.967 320.712 210.9C319.645 210.367 318.795 209.567 318.162 208.5C317.528 207.433 317.212 206.167 317.212 204.7L323.262 204.4C323.262 205.333 323.595 206 324.262 206.4C324.928 206.8 326.062 207 327.662 207C329.295 207 330.395 206.6 330.962 205.8C331.562 205 331.862 203.85 331.862 202.35L332.112 198.05L325.112 201.8C321.278 201.8 318.695 200.5 317.362 197.9C316.162 195.6 315.562 192.783 315.562 189.45C315.562 185.483 315.862 182.683 316.462 181.05C317.095 179.25 317.995 177.95 319.162 177.15C320.662 176.15 322.628 175.65 325.062 175.65H331.912ZM331.912 192.4V181.5H326.962C325.095 181.5 323.812 182.133 323.112 183.4C322.412 184.667 322.062 186.433 322.062 188.7C322.062 190.967 322.412 192.583 323.112 193.55C323.845 194.483 325.128 194.95 326.962 194.95L331.912 192.4ZM365.296 204H360.946L358.946 200.55L351.996 204.3C348.129 204.3 345.529 202.9 344.196 200.1C343.529 198.733 343.063 197.267 342.796 195.7C342.563 194.1 342.446 192.45 342.446 190.75C342.446 189.017 342.463 187.75 342.496 186.95C342.529 186.117 342.613 185.167 342.746 184.1C342.879 183 343.063 182.083 343.296 181.35C343.563 180.617 343.929 179.867 344.396 179.1C344.863 178.3 345.429 177.667 346.096 177.2C347.596 176.167 349.546 175.65 351.946 175.65H358.796L365.296 175.25V204ZM358.796 194.9V181.5H353.846C352.013 181.5 350.729 182.2 349.996 183.6C349.296 185 348.946 187.1 348.946 189.9C348.946 192.667 349.279 194.617 349.946 195.75C350.646 196.883 351.946 197.45 353.846 197.45L358.796 194.9ZM393.105 204H388.755L386.755 200.55L379.805 204.3C375.938 204.3 373.338 202.9 372.005 200.1C371.338 198.733 370.872 197.267 370.605 195.7C370.372 194.1 370.255 192.45 370.255 190.75C370.255 189.017 370.272 187.75 370.305 186.95C370.338 186.117 370.422 185.167 370.555 184.1C370.688 183 370.872 182.083 371.105 181.35C371.372 180.617 371.738 179.867 372.205 179.1C372.672 178.3 373.238 177.667 373.905 177.2C375.405 176.167 377.355 175.65 379.755 175.65H386.605V166.4H393.105V204ZM386.605 194.9V181.5H381.655C379.822 181.5 378.538 182.2 377.805 183.6C377.105 185 376.755 187.1 376.755 189.9C376.755 192.667 377.088 194.617 377.755 195.75C378.455 196.883 379.755 197.45 381.655 197.45L386.605 194.9ZM415.832 191.1V188.5C415.832 186.033 415.466 184.15 414.732 182.85C414.032 181.55 412.549 180.9 410.282 180.9C406.616 180.9 404.782 183.367 404.782 188.3V190.9C404.782 196.2 406.616 198.85 410.282 198.85C412.649 198.85 414.199 197.967 414.932 196.2C415.532 194.8 415.832 193.1 415.832 191.1ZM422.332 189.6C422.332 195.767 421.166 199.9 418.832 202C416.866 203.8 414.016 204.7 410.282 204.7C405.516 204.7 402.299 203.3 400.632 200.5C399.066 197.933 398.282 194.3 398.282 189.6C398.282 185.2 399.066 181.75 400.632 179.25C402.366 176.45 405.516 175.05 410.082 175.05C414.682 175.05 417.866 176.283 419.632 178.75C421.432 181.183 422.332 184.8 422.332 189.6ZM442.681 175.55L440.881 181.95C440.381 181.75 439.814 181.65 439.181 181.65C437.514 181.65 435.464 182.367 433.031 183.8V204H426.531V175.45H431.381L432.881 177.95L439.781 175.1C440.114 175.067 440.564 175.05 441.131 175.05C441.698 175.05 442.214 175.217 442.681 175.55ZM479.484 204H462.434C460.968 204 459.718 203.7 458.684 203.1C457.651 202.5 457.134 201.5 457.134 200.1C457.134 198.933 457.551 197.8 458.384 196.7C458.684 196.333 459.184 195.767 459.884 195L465.234 189.05C466.768 187.517 467.984 186.133 468.884 184.9C469.784 183.633 470.451 182.683 470.884 182.05C471.318 181.417 471.651 180.867 471.884 180.4C472.451 179.267 472.734 178.3 472.734 177.5C472.734 176.7 472.418 175.917 471.784 175.15C471.184 174.35 470.068 173.95 468.434 173.95C466.834 173.95 465.718 174.417 465.084 175.35C464.484 176.283 464.184 177.6 464.184 179.3H457.634C457.634 177.6 457.768 176.15 458.034 174.95C458.301 173.717 458.818 172.55 459.584 171.45C461.084 169.217 464.184 168.1 468.884 168.1C472.384 168.1 475.084 168.817 476.984 170.25C478.884 171.683 479.834 173.733 479.834 176.4C479.834 178.033 479.451 179.733 478.684 181.5C477.951 183.233 477.168 184.633 476.334 185.7C475.501 186.767 474.518 187.95 473.384 189.25C472.251 190.55 471.584 191.333 471.384 191.6L465.734 198.15H479.484V204ZM492.877 197.3C493.41 197.8 493.677 198.883 493.677 200.55C493.677 202.217 493.41 203.317 492.877 203.85C492.377 204.383 491.294 204.65 489.627 204.65C487.96 204.65 486.86 204.383 486.327 203.85C485.794 203.317 485.527 202.217 485.527 200.55C485.527 198.883 485.794 197.8 486.327 197.3C486.86 196.767 487.96 196.5 489.627 196.5C491.294 196.5 492.377 196.767 492.877 197.3ZM507.623 197.3C508.156 197.8 508.423 198.883 508.423 200.55C508.423 202.217 508.156 203.317 507.623 203.85C507.123 204.383 506.04 204.65 504.373 204.65C502.706 204.65 501.606 204.383 501.073 203.85C500.54 203.317 500.273 202.217 500.273 200.55C500.273 198.883 500.54 197.8 501.073 197.3C501.606 196.767 502.706 196.5 504.373 196.5C506.04 196.5 507.123 196.767 507.623 197.3ZM522.369 197.3C522.902 197.8 523.169 198.883 523.169 200.55C523.169 202.217 522.902 203.317 522.369 203.85C521.869 204.383 520.786 204.65 519.119 204.65C517.452 204.65 516.352 204.383 515.819 203.85C515.286 203.317 515.019 202.217 515.019 200.55C515.019 198.883 515.286 197.8 515.819 197.3C516.352 196.767 517.452 196.5 519.119 196.5C520.786 196.5 521.869 196.767 522.369 197.3Z" fill="white"/>
</svg>
