<svg width="558" height="389" viewBox="0 0 558 389" fill="none" xmlns="http://www.w3.org/2000/svg">
<g clip-path="url(#clip0_76_12)">
<g style="mix-blend-mode:saturation">
<rect x="74" y="237" width="399" height="18" rx="9" fill="#8E8E8E"/>
</g>
<g style="mix-blend-mode:saturation">
<rect x="181" y="21" width="18" height="332" rx="9" fill="#8E8E8E"/>
</g>
<g style="mix-blend-mode:saturation">
<rect x="350" y="21" width="18" height="332" rx="9" fill="#8E8E8E"/>
</g>
<g style="mix-blend-mode:saturation">
<rect x="74" y="118" width="399" height="18" rx="9" fill="#8E8E8E"/>
</g>
<g style="mix-blend-mode:saturation">
<path d="M290.25 208H281.65L274.2 195.6L266.85 208H258.25L270.2 189.75L259 172.4H267.55L274.2 183.9L280.95 172.4H289.45L278.25 189.75L290.25 208Z" fill="#8E8E8E"/>
</g>
<g style="mix-blend-mode:saturation">
<path d="M288.25 69.55V72.25C288.25 78.2167 287.117 82.55 284.85 85.25C282.617 87.95 279.017 89.3 274.05 89.3C269.083 89.3 265.483 87.95 263.25 85.25C261.05 82.55 259.95 78.1667 259.95 72.1V69.5C259.95 63.9667 261.067 59.85 263.3 57.15C265.567 54.45 269.133 53.1 274 53.1C278.9 53.1 282.5 54.4667 284.8 57.2C287.1 59.9333 288.25 64.05 288.25 69.55ZM281.3 72.1V70.25C281.3 67.05 280.9 64.5 280.1 62.6C279.167 60.4 277.167 59.3 274.1 59.3C271 59.3 268.983 60.4 268.05 62.6C267.283 64.4 266.9 66.95 266.9 70.25V72.1C266.9 76.4 267.5 79.3 268.7 80.8C269.167 81.4333 269.85 81.9833 270.75 82.45C271.683 82.8833 272.783 83.1 274.05 83.1C275.35 83.1 276.45 82.8833 277.35 82.45C278.25 82.0167 278.95 81.4833 279.45 80.85C279.95 80.2167 280.333 79.3833 280.6 78.35C281.067 76.7167 281.3 74.6333 281.3 72.1Z" fill="#8E8E8E"/>
</g>
</g>
<path d="M64.6 192H52C48 192 45.1833 191.317 43.55 189.95C41.95 188.55 41.15 186.1 41.15 182.6V156.4H64.6V162.6H48.1V170.95H59.65L59.15 177.15H48.1V182.1C48.1 183.5 48.4167 184.467 49.05 185C49.6833 185.533 50.8333 185.8 52.5 185.8H64.6V192ZM90.5234 184.1V184.85C90.3234 187.35 89.2568 189.233 87.3234 190.5C85.4234 191.767 83.0401 192.4 80.1734 192.4C75.9401 192.4 72.9734 191.633 71.2734 190.1C69.7068 188.7 68.9234 186.633 68.9234 183.9V183.3H74.8234C74.8234 184.833 75.2234 185.883 76.0234 186.45C76.8234 187.017 78.2068 187.3 80.1734 187.3C82.8401 187.3 84.1734 186.333 84.1734 184.4C84.1734 182.8 83.7068 181.733 82.7734 181.2C82.3401 180.933 81.7901 180.733 81.1234 180.6L76.0734 179.75C71.6734 179.05 69.4734 176.3 69.4734 171.5C69.4734 168.833 70.4401 166.767 72.3734 165.3C74.3401 163.8 76.8234 163.05 79.8234 163.05C86.6568 163.05 90.0734 166 90.0734 171.9V172.55H84.4234C84.3568 170.983 83.9401 169.917 83.1734 169.35C82.4068 168.783 81.3234 168.5 79.9234 168.5C78.5568 168.5 77.5234 168.783 76.8234 169.35C76.1234 169.883 75.7734 170.483 75.7734 171.15C75.7734 173.05 76.5401 174.133 78.0734 174.4L84.1234 175.5C88.3901 176.3 90.5234 179.167 90.5234 184.1ZM118.772 176.95C118.772 184.383 116.856 189.133 113.022 191.2C111.456 192.033 109.539 192.45 107.272 192.45L102.472 189.35V200.5H95.9723V163.65H108.772C112.639 163.65 115.272 164.75 116.672 166.95C118.072 169.117 118.772 172.45 118.772 176.95ZM112.272 177.95C112.272 172.317 110.472 169.5 106.872 169.5H102.472V182.75L106.872 185.6C108.806 185.6 110.189 185 111.022 183.8C111.856 182.567 112.272 180.617 112.272 177.95ZM145.351 179.25H128.701C128.701 181.85 129.101 183.75 129.901 184.95C130.734 186.15 132.384 186.75 134.851 186.75C136.451 186.75 137.634 186.25 138.401 185.25C139.167 184.217 139.551 183.233 139.551 182.3H145.401C145.401 185.867 144.434 188.483 142.501 190.15C140.601 191.817 138.067 192.65 134.901 192.65C131.767 192.65 129.334 192.2 127.601 191.3C124.034 189.467 122.251 184.6 122.251 176.7C122.251 172 123.267 168.567 125.301 166.4C127.334 164.2 130.434 163.1 134.601 163.1C141.834 163.1 145.451 167.117 145.451 175.15C145.451 176.017 145.417 177.383 145.351 179.25ZM128.851 174.8H139.551C139.551 172.6 139.134 171 138.301 170C137.467 169 136.184 168.5 134.451 168.5C132.751 168.5 131.384 169.017 130.351 170.05C129.351 171.05 128.851 172.633 128.851 174.8ZM166.493 163.55L164.693 169.95C164.193 169.75 163.627 169.65 162.993 169.65C161.327 169.65 159.277 170.367 156.843 171.8V192H150.343V163.45H155.193L156.693 165.95L163.593 163.1C163.927 163.067 164.377 163.05 164.943 163.05C165.51 163.05 166.027 163.217 166.493 163.55ZM190.476 192H186.126L184.126 188.55L177.176 192.3C173.309 192.3 170.709 190.9 169.376 188.1C168.709 186.733 168.242 185.267 167.976 183.7C167.742 182.1 167.626 180.45 167.626 178.75C167.626 177.017 167.642 175.75 167.676 174.95C167.709 174.117 167.792 173.167 167.926 172.1C168.059 171 168.242 170.083 168.476 169.35C168.742 168.617 169.109 167.867 169.576 167.1C170.042 166.3 170.609 165.667 171.276 165.2C172.776 164.167 174.726 163.65 177.126 163.65H183.976L190.476 163.25V192ZM183.976 182.9V169.5H179.026C177.192 169.5 175.909 170.2 175.176 171.6C174.476 173 174.126 175.1 174.126 177.9C174.126 180.667 174.459 182.617 175.126 183.75C175.826 184.883 177.126 185.45 179.026 185.45L183.976 182.9ZM219.685 192H213.185V173.75C213.185 172.117 212.851 171 212.185 170.4C211.518 169.8 210.585 169.5 209.385 169.5L203.535 171.95V192H197.035V163.45H201.885L203.385 166.85L211.385 163.15C213.618 163.15 215.551 163.983 217.185 165.65C218.851 167.283 219.685 169.683 219.685 172.85V192ZM246.947 192H242.597L240.597 188.55L233.647 192.3C229.78 192.3 227.18 190.9 225.847 188.1C225.18 186.733 224.714 185.267 224.447 183.7C224.214 182.1 224.097 180.45 224.097 178.75C224.097 177.017 224.114 175.75 224.147 174.95C224.18 174.117 224.264 173.167 224.397 172.1C224.53 171 224.714 170.083 224.947 169.35C225.214 168.617 225.58 167.867 226.047 167.1C226.514 166.3 227.08 165.667 227.747 165.2C229.247 164.167 231.197 163.65 233.597 163.65H240.447V154.4H246.947V192ZM240.447 182.9V169.5H235.497C233.664 169.5 232.38 170.2 231.647 171.6C230.947 173 230.597 175.1 230.597 177.9C230.597 180.667 230.93 182.617 231.597 183.75C232.297 184.883 233.597 185.45 235.497 185.45L240.447 182.9ZM269.674 179.1V176.5C269.674 174.033 269.308 172.15 268.574 170.85C267.874 169.55 266.391 168.9 264.124 168.9C260.458 168.9 258.624 171.367 258.624 176.3V178.9C258.624 184.2 260.458 186.85 264.124 186.85C266.491 186.85 268.041 185.967 268.774 184.2C269.374 182.8 269.674 181.1 269.674 179.1ZM276.174 177.6C276.174 183.767 275.008 187.9 272.674 190C270.708 191.8 267.858 192.7 264.124 192.7C259.358 192.7 256.141 191.3 254.474 188.5C252.908 185.933 252.124 182.3 252.124 177.6C252.124 173.2 252.908 169.75 254.474 167.25C256.208 164.45 259.358 163.05 263.924 163.05C268.524 163.05 271.708 164.283 273.474 166.75C275.274 169.183 276.174 172.8 276.174 177.6ZM299.494 164.5V193.05C299.494 195.083 298.844 196.833 297.544 198.3C296.277 199.767 294.394 200.5 291.894 200.5H288.194V195H290.694C292.227 195 292.994 194.217 292.994 192.65V164.5H299.494ZM296.294 152.55C297.86 152.55 298.877 152.8 299.344 153.3C299.81 153.767 300.044 154.783 300.044 156.35C300.044 157.883 299.794 158.9 299.294 159.4C298.827 159.867 297.81 160.1 296.244 160.1C294.71 160.1 293.694 159.85 293.194 159.35C292.727 158.85 292.494 157.833 292.494 156.3C292.494 154.767 292.727 153.767 293.194 153.3C293.694 152.8 294.727 152.55 296.294 152.55ZM322.213 179.1V176.5C322.213 174.033 321.847 172.15 321.113 170.85C320.413 169.55 318.93 168.9 316.663 168.9C312.997 168.9 311.163 171.367 311.163 176.3V178.9C311.163 184.2 312.997 186.85 316.663 186.85C319.03 186.85 320.58 185.967 321.313 184.2C321.913 182.8 322.213 181.1 322.213 179.1ZM328.713 177.6C328.713 183.767 327.547 187.9 325.213 190C323.247 191.8 320.397 192.7 316.663 192.7C311.897 192.7 308.68 191.3 307.013 188.5C305.447 185.933 304.663 182.3 304.663 177.6C304.663 173.2 305.447 169.75 307.013 167.25C308.747 164.45 311.897 163.05 316.463 163.05C321.063 163.05 324.247 164.283 326.013 166.75C327.813 169.183 328.713 172.8 328.713 177.6ZM347.912 163.65L354.412 163.25V190.7C354.412 193.867 353.512 196.283 351.712 197.95C349.945 199.65 347.312 200.5 343.812 200.5C341.112 200.5 338.745 199.967 336.712 198.9C335.645 198.367 334.795 197.567 334.162 196.5C333.528 195.433 333.212 194.167 333.212 192.7L339.262 192.4C339.262 193.333 339.595 194 340.262 194.4C340.928 194.8 342.062 195 343.662 195C345.295 195 346.395 194.6 346.962 193.8C347.562 193 347.862 191.85 347.862 190.35L348.112 186.05L341.112 189.8C337.278 189.8 334.695 188.5 333.362 185.9C332.162 183.6 331.562 180.783 331.562 177.45C331.562 173.483 331.862 170.683 332.462 169.05C333.095 167.25 333.995 165.95 335.162 165.15C336.662 164.15 338.628 163.65 341.062 163.65H347.912ZM347.912 180.4V169.5H342.962C341.095 169.5 339.812 170.133 339.112 171.4C338.412 172.667 338.062 174.433 338.062 176.7C338.062 178.967 338.412 180.583 339.112 181.55C339.845 182.483 341.128 182.95 342.962 182.95L347.912 180.4ZM381.296 192H376.946L374.946 188.55L367.996 192.3C364.129 192.3 361.529 190.9 360.196 188.1C359.529 186.733 359.063 185.267 358.796 183.7C358.563 182.1 358.446 180.45 358.446 178.75C358.446 177.017 358.463 175.75 358.496 174.95C358.529 174.117 358.613 173.167 358.746 172.1C358.879 171 359.063 170.083 359.296 169.35C359.563 168.617 359.929 167.867 360.396 167.1C360.863 166.3 361.429 165.667 362.096 165.2C363.596 164.167 365.546 163.65 367.946 163.65H374.796L381.296 163.25V192ZM374.796 182.9V169.5H369.846C368.013 169.5 366.729 170.2 365.996 171.6C365.296 173 364.946 175.1 364.946 177.9C364.946 180.667 365.279 182.617 365.946 183.75C366.646 184.883 367.946 185.45 369.846 185.45L374.796 182.9ZM409.105 192H404.755L402.755 188.55L395.805 192.3C391.938 192.3 389.338 190.9 388.005 188.1C387.338 186.733 386.872 185.267 386.605 183.7C386.372 182.1 386.255 180.45 386.255 178.75C386.255 177.017 386.272 175.75 386.305 174.95C386.338 174.117 386.422 173.167 386.555 172.1C386.688 171 386.872 170.083 387.105 169.35C387.372 168.617 387.738 167.867 388.205 167.1C388.672 166.3 389.238 165.667 389.905 165.2C391.405 164.167 393.355 163.65 395.755 163.65H402.605V154.4H409.105V192ZM402.605 182.9V169.5H397.655C395.822 169.5 394.538 170.2 393.805 171.6C393.105 173 392.755 175.1 392.755 177.9C392.755 180.667 393.088 182.617 393.755 183.75C394.455 184.883 395.755 185.45 397.655 185.45L402.605 182.9ZM431.832 179.1V176.5C431.832 174.033 431.466 172.15 430.732 170.85C430.032 169.55 428.549 168.9 426.282 168.9C422.616 168.9 420.782 171.367 420.782 176.3V178.9C420.782 184.2 422.616 186.85 426.282 186.85C428.649 186.85 430.199 185.967 430.932 184.2C431.532 182.8 431.832 181.1 431.832 179.1ZM438.332 177.6C438.332 183.767 437.166 187.9 434.832 190C432.866 191.8 430.016 192.7 426.282 192.7C421.516 192.7 418.299 191.3 416.632 188.5C415.066 185.933 414.282 182.3 414.282 177.6C414.282 173.2 415.066 169.75 416.632 167.25C418.366 164.45 421.516 163.05 426.082 163.05C430.682 163.05 433.866 164.283 435.632 166.75C437.432 169.183 438.332 172.8 438.332 177.6ZM458.681 163.55L456.881 169.95C456.381 169.75 455.814 169.65 455.181 169.65C453.514 169.65 451.464 170.367 449.031 171.8V192H442.531V163.45H447.381L448.881 165.95L455.781 163.1C456.114 163.067 456.564 163.05 457.131 163.05C457.698 163.05 458.214 163.217 458.681 163.55ZM495.484 192H478.434C476.968 192 475.718 191.7 474.684 191.1C473.651 190.5 473.134 189.5 473.134 188.1C473.134 186.933 473.551 185.8 474.384 184.7C474.684 184.333 475.184 183.767 475.884 183L481.234 177.05C482.768 175.517 483.984 174.133 484.884 172.9C485.784 171.633 486.451 170.683 486.884 170.05C487.318 169.417 487.651 168.867 487.884 168.4C488.451 167.267 488.734 166.3 488.734 165.5C488.734 164.7 488.418 163.917 487.784 163.15C487.184 162.35 486.068 161.95 484.434 161.95C482.834 161.95 481.718 162.417 481.084 163.35C480.484 164.283 480.184 165.6 480.184 167.3H473.634C473.634 165.6 473.768 164.15 474.034 162.95C474.301 161.717 474.818 160.55 475.584 159.45C477.084 157.217 480.184 156.1 484.884 156.1C488.384 156.1 491.084 156.817 492.984 158.25C494.884 159.683 495.834 161.733 495.834 164.4C495.834 166.033 495.451 167.733 494.684 169.5C493.951 171.233 493.168 172.633 492.334 173.7C491.501 174.767 490.518 175.95 489.384 177.25C488.251 178.55 487.584 179.333 487.384 179.6L481.734 186.15H495.484V192ZM508.877 185.3C509.41 185.8 509.677 186.883 509.677 188.55C509.677 190.217 509.41 191.317 508.877 191.85C508.377 192.383 507.294 192.65 505.627 192.65C503.96 192.65 502.86 192.383 502.327 191.85C501.794 191.317 501.527 190.217 501.527 188.55C501.527 186.883 501.794 185.8 502.327 185.3C502.86 184.767 503.96 184.5 505.627 184.5C507.294 184.5 508.377 184.767 508.877 185.3ZM523.623 185.3C524.156 185.8 524.423 186.883 524.423 188.55C524.423 190.217 524.156 191.317 523.623 191.85C523.123 192.383 522.04 192.65 520.373 192.65C518.706 192.65 517.606 192.383 517.073 191.85C516.54 191.317 516.273 190.217 516.273 188.55C516.273 186.883 516.54 185.8 517.073 185.3C517.606 184.767 518.706 184.5 520.373 184.5C522.04 184.5 523.123 184.767 523.623 185.3ZM538.369 185.3C538.902 185.8 539.169 186.883 539.169 188.55C539.169 190.217 538.902 191.317 538.369 191.85C537.869 192.383 536.786 192.65 535.119 192.65C533.452 192.65 532.352 192.383 531.819 191.85C531.286 191.317 531.019 190.217 531.019 188.55C531.019 186.883 531.286 185.8 531.819 185.3C532.352 184.767 533.452 184.5 535.119 184.5C536.786 184.5 537.869 184.767 538.369 185.3Z" fill="white"/>
<defs>
<clipPath id="clip0_76_12">
<rect width="399" height="332" fill="white" transform="translate(74 21)"/>
</clipPath>
</defs>
</svg>
