<svg width="23" height="23" viewBox="0 0 23 23" fill="none" xmlns="http://www.w3.org/2000/svg">
<path d="M8 7.00003V8.00003H6.5C5.67157 8.00003 5 8.6716 5 9.50003V18.5C5 19.3285 5.67157 20 6.5 20H13.5C14.3284 20 15 19.3285 15 18.5V17H16V18.5C16 19.8807 14.8807 21 13.5 21H6.5C5.11929 21 4 19.8807 4 18.5V9.50003C4 8.11931 5.11929 7.00003 6.5 7.00003H8ZM16 4.00003H10.5C9.67157 4.00003 9 4.6716 9 5.50003V14.5C9 15.3285 9.67157 16 10.5 16H17.5C18.3284 16 19 15.3285 19 14.5V7.00003H16.5C16.2239 7.00003 16 6.77617 16 6.50003V4.00003ZM20 6.528V14.5C20 15.8807 18.8807 17 17.5 17H10.5C9.11929 17 8 15.8807 8 14.5V5.50003C8 4.11931 9.11929 3.00003 10.5 3.00003H16.472C16.6048 2.99161 16.7429 3.03587 16.8536 3.14647L19.8536 6.14647C19.9642 6.25708 20.0084 6.39526 20 6.528ZM17 6.00003H18.2929L17 4.70713V6.00003ZM11.5 13C11.2239 13 11 12.7762 11 12.5C11 12.2239 11.2239 12 11.5 12H13.5C13.7761 12 14 12.2239 14 12.5C14 12.7762 13.7761 13 13.5 13H11.5ZM11.5 11C11.2239 11 11 10.7762 11 10.5C11 10.2239 11.2239 10 11.5 10H16.5C16.7761 10 17 10.2239 17 10.5C17 10.7762 16.7761 11 16.5 11H11.5ZM11.5 9.00003C11.2239 9.00003 11 8.77617 11 8.50003C11 8.22388 11.2239 8.00003 11.5 8.00003H16.5C16.7761 8.00003 17 8.22388 17 8.50003C17 8.77617 16.7761 9.00003 16.5 9.00003H11.5Z" fill="#7000FF" fill-opacity="0.65"/>
</svg>
